<?xml version="1.0" encoding="UTF-8" standalone="no"?> <svg xmlns="http://www.w3.org/2000/svg" xmlns:xlink="http://www.w3.org/1999/xlink" viewBox="0 0 64 64"><defs><style>.cls-1{fill:url(#linear-gradient);}.cls-2{fill:url(#linear-gradient-2);}</style><linearGradient id="linear-gradient" x1="11.21" y1="32" x2="52.79" y2="32" gradientUnits="userSpaceOnUse"><stop offset="0" stop-color="#ffae46"/><stop offset="0.19" stop-color="#ff9755"/><stop offset="0.74" stop-color="#ff5a7d"/><stop offset="1" stop-color="#ff428d"/></linearGradient><linearGradient id="linear-gradient-2" x1="22.66" y1="24.17" x2="41.34" y2="24.17" xlink:href="#linear-gradient"/></defs><g id="Layer_28" data-name="Layer 28"><path class="cls-1" d="M32,4C20.54,4,11.21,13.87,11.21,26c0,11.68,18.51,32.46,19.3,33.33a2,2,0,0,0,3,0c.79-.87,19.3-21.65,19.3-33.33C52.79,13.87,43.46,4,32,4Zm0,51C26.22,48.18,15.21,33.7,15.21,26c0-9.93,7.53-18,16.79-18s16.79,8.07,16.79,18C48.79,33.7,37.78,48.18,32,55Z"/><path class="cls-2" d="M32,14.84a9.34,9.34,0,1,0,9.34,9.33A9.35,9.35,0,0,0,32,14.84Zm0,14.67a5.34,5.34,0,1,1,5.34-5.34A5.35,5.35,0,0,1,32,29.51Z"/></g></svg>