<?xml version="1.0" encoding="UTF-8" standalone="no"?> <svg width="512" height="512" viewBox="0 0 512 512" fill="none" xmlns="http://www.w3.org/2000/svg">
<path fill-rule="evenodd" clip-rule="evenodd" d="M256 480C379.712 480 480 379.712 480 256C480 132.288 379.712 32 256 32C132.288 32 32 132.288 32 256C32 300.08 44.7323 341.186 66.7197 375.841L32 480L136.159 445.28C170.814 467.268 211.92 480 256 480Z" fill="#25D366"/>
<path d="M137.307 175.331C123.334 292.571 223.599 391.494 331.463 383.553C360.153 381.441 381.801 348.926 374.61 326.943C372.054 320.144 345.151 308.496 322.134 301.72C321.272 301.466 320.351 301.826 319.881 302.593L303.465 329.359C303.009 330.102 302.111 330.462 301.267 330.246C237.981 314.078 205.968 274.375 188.046 211.142C187.806 210.295 188.15 209.382 188.892 208.909L215.67 191.855C216.139 191.556 216.464 191.085 216.551 190.535C219.699 170.636 209.167 135.176 205.62 132.765C184.047 118.102 141.676 138.679 137.307 175.331Z" fill="white"/>
</svg>
